<?xml version="1.0" encoding="UTF-8" standalone="no"?>
<svg
   xmlns:dc="http://purl.org/dc/elements/1.1/"
   xmlns:cc="http://creativecommons.org/ns#"
   xmlns:rdf="http://www.w3.org/1999/02/22-rdf-syntax-ns#"
   xmlns:svg="http://www.w3.org/2000/svg"
   xmlns="http://www.w3.org/2000/svg"
   xmlns:sodipodi="http://sodipodi.sourceforge.net/DTD/sodipodi-0.dtd"
   xmlns:inkscape="http://www.inkscape.org/namespaces/inkscape"
   viewBox="0 0 108 108"
   id="vector"
   version="1.1"
   sodipodi:docname="logo.svg"
   inkscape:version="0.92.5 (2060ec1f9f, 2020-04-08)">
  <metadata
     id="metadata40">
    <rdf:RDF>
      <cc:Work
         rdf:about="">
        <dc:format>image/svg+xml</dc:format>
        <dc:type
           rdf:resource="http://purl.org/dc/dcmitype/StillImage" />
      </cc:Work>
    </rdf:RDF>
  </metadata>
  <defs
     id="defs38" />
  <sodipodi:namedview
     pagecolor="#ffffff"
     bordercolor="#666666"
     borderopacity="1"
     objecttolerance="10"
     gridtolerance="10"
     guidetolerance="10"
     inkscape:pageopacity="0"
     inkscape:pageshadow="2"
     inkscape:window-width="1294"
     inkscape:window-height="704"
     id="namedview36"
     showgrid="false"
     inkscape:zoom="2.8843544"
     inkscape:cx="93.845219"
     inkscape:cy="88.433641"
     inkscape:window-x="72"
     inkscape:window-y="27"
     inkscape:window-maximized="1"
     inkscape:current-layer="vector" />
  <g
     id="g1620"
     transform="matrix(1.3531184,0,0,1.3531184,-19.068391,-19.068391)">
    <path
       d="M 0,0 H 108 V 108 H 0 Z"
       id="path"
       inkscape:connector-curvature="0"
       style="fill:#3ddc84" />
    <path
       stroke="#ffffff33"
       fill="#00000000"
       d="M 9,0 V 108"
       id="path_1"
       inkscape:connector-curvature="0"
       style="stroke-width:0.80000001" />
    <path
       stroke="#ffffff33"
       fill="#00000000"
       d="M 19,0 V 108"
       id="path_2"
       inkscape:connector-curvature="0"
       style="stroke-width:0.80000001" />
    <path
       stroke="#ffffff33"
       fill="#00000000"
       d="M 29,0 V 108"
       id="path_3"
       inkscape:connector-curvature="0"
       style="stroke-width:0.80000001" />
    <path
       stroke="#ffffff33"
       fill="#00000000"
       d="M 39,0 V 108"
       id="path_4"
       inkscape:connector-curvature="0"
       style="stroke-width:0.80000001" />
    <path
       stroke="#ffffff33"
       fill="#00000000"
       d="M 49,0 V 108"
       id="path_5"
       inkscape:connector-curvature="0"
       style="stroke-width:0.80000001" />
    <path
       stroke="#ffffff33"
       fill="#00000000"
       d="M 59,0 V 108"
       id="path_6"
       inkscape:connector-curvature="0"
       style="stroke-width:0.80000001" />
    <path
       stroke="#ffffff33"
       fill="#00000000"
       d="M 69,0 V 108"
       id="path_7"
       inkscape:connector-curvature="0"
       style="stroke-width:0.80000001" />
    <path
       stroke="#ffffff33"
       fill="#00000000"
       d="M 79,0 V 108"
       id="path_8"
       inkscape:connector-curvature="0"
       style="stroke-width:0.80000001" />
    <path
       stroke="#ffffff33"
       fill="#00000000"
       d="M 89,0 V 108"
       id="path_9"
       inkscape:connector-curvature="0"
       style="stroke-width:0.80000001" />
    <path
       stroke="#ffffff33"
       fill="#00000000"
       d="M 99,0 V 108"
       id="path_10"
       inkscape:connector-curvature="0"
       style="stroke-width:0.80000001" />
    <path
       stroke="#ffffff33"
       fill="#00000000"
       d="M 0,9 H 108"
       id="path_11"
       inkscape:connector-curvature="0"
       style="stroke-width:0.80000001" />
    <path
       stroke="#ffffff33"
       fill="#00000000"
       d="M 0,19 H 108"
       id="path_12"
       inkscape:connector-curvature="0"
       style="stroke-width:0.80000001" />
    <path
       stroke="#ffffff33"
       fill="#00000000"
       d="M 0,29 H 108"
       id="path_13"
       inkscape:connector-curvature="0"
       style="stroke-width:0.80000001" />
    <path
       stroke="#ffffff33"
       fill="#00000000"
       d="M 0,39 H 108"
       id="path_14"
       inkscape:connector-curvature="0"
       style="stroke-width:0.80000001" />
    <path
       stroke="#ffffff33"
       fill="#00000000"
       d="M 0,49 H 108"
       id="path_15"
       inkscape:connector-curvature="0"
       style="stroke-width:0.80000001" />
    <path
       stroke="#ffffff33"
       fill="#00000000"
       d="M 0,59 H 108"
       id="path_16"
       inkscape:connector-curvature="0"
       style="stroke-width:0.80000001" />
    <path
       stroke="#ffffff33"
       fill="#00000000"
       d="M 0,69 H 108"
       id="path_17"
       inkscape:connector-curvature="0"
       style="stroke-width:0.80000001" />
    <path
       stroke="#ffffff33"
       fill="#00000000"
       d="M 0,79 H 108"
       id="path_18"
       inkscape:connector-curvature="0"
       style="stroke-width:0.80000001" />
    <path
       stroke="#ffffff33"
       fill="#00000000"
       d="M 0,89 H 108"
       id="path_19"
       inkscape:connector-curvature="0"
       style="stroke-width:0.80000001" />
    <path
       stroke="#ffffff33"
       fill="#00000000"
       d="M 0,99 H 108"
       id="path_20"
       inkscape:connector-curvature="0"
       style="stroke-width:0.80000001" />
    <path
       stroke="#ffffff33"
       fill="#00000000"
       d="M 19,29 H 89"
       id="path_21"
       inkscape:connector-curvature="0"
       style="stroke-width:0.80000001" />
    <path
       stroke="#ffffff33"
       fill="#00000000"
       d="M 19,39 H 89"
       id="path_22"
       inkscape:connector-curvature="0"
       style="stroke-width:0.80000001" />
    <path
       stroke="#ffffff33"
       fill="#00000000"
       d="M 19,49 H 89"
       id="path_23"
       inkscape:connector-curvature="0"
       style="stroke-width:0.80000001" />
    <path
       stroke="#ffffff33"
       fill="#00000000"
       d="M 19,59 H 89"
       id="path_24"
       inkscape:connector-curvature="0"
       style="stroke-width:0.80000001" />
    <path
       stroke="#ffffff33"
       fill="#00000000"
       d="M 19,69 H 89"
       id="path_25"
       inkscape:connector-curvature="0"
       style="stroke-width:0.80000001" />
    <path
       stroke="#ffffff33"
       fill="#00000000"
       d="M 19,79 H 89"
       id="path_26"
       inkscape:connector-curvature="0"
       style="stroke-width:0.80000001" />
    <path
       stroke="#ffffff33"
       fill="#00000000"
       d="M 29,19 V 89"
       id="path_27"
       inkscape:connector-curvature="0"
       style="stroke-width:0.80000001" />
    <path
       stroke="#ffffff33"
       fill="#00000000"
       d="M 39,19 V 89"
       id="path_28"
       inkscape:connector-curvature="0"
       style="stroke-width:0.80000001" />
    <path
       stroke="#ffffff33"
       fill="#00000000"
       d="M 49,19 V 89"
       id="path_29"
       inkscape:connector-curvature="0"
       style="stroke-width:0.80000001" />
    <path
       stroke="#ffffff33"
       fill="#00000000"
       d="M 59,19 V 89"
       id="path_30"
       inkscape:connector-curvature="0"
       style="stroke-width:0.80000001" />
    <path
       stroke="#ffffff33"
       fill="#00000000"
       d="M 69,19 V 89"
       id="path_31"
       inkscape:connector-curvature="0"
       style="stroke-width:0.80000001" />
    <path
       stroke="#ffffff33"
       fill="#00000000"
       d="M 79,19 V 89"
       id="path_32"
       inkscape:connector-curvature="0"
       style="stroke-width:0.80000001" />
  </g>
  <path
     style="fill:none"
     inkscape:connector-curvature="0"
     id="path-6"
     d="m -25,-15 c 0,0 6.4,-11 12.1,-13.1 7.2,-2.6 26,-1.4 26,-1.4 L 51.2,8.6 51,30 19,29 Z" />
  <path
     style="fill:#ffffff;stroke-width:1.38830292"
     inkscape:connector-curvature="0"
     id="path_1-7"
     d="m 69.687822,40.85024 5.275551,-9.1628 c 0.27766,-0.555321 0.13883,-1.249472 -0.41649,-1.527133 -0.555322,-0.27766 -1.249473,-0.13883 -1.527134,0.416492 l -5.414381,9.301629 c -8.746309,-3.887248 -18.603259,-3.887248 -27.349569,0 l -5.41438,-9.301629 c -0.277662,-0.555322 -0.971813,-0.694152 -1.527134,-0.416492 -0.416491,0.277661 -0.555321,0.971812 -0.277661,1.527133 l 5.275552,9.1628 C 29.288207,45.84813 23.040843,55.01093 22.069032,65.978523 H 85.930967 C 84.959154,55.01093 78.711791,45.84813 69.687822,40.85024 Z M 39.283988,56.815723 c -1.110643,0 -2.082455,-0.694151 -2.498946,-1.665963 -0.41649,-0.971812 -0.13883,-2.082454 0.555321,-2.915436 0.694152,-0.694151 1.943625,-0.971812 2.915436,-0.555321 0.971813,0.416491 1.665965,1.388303 1.665965,2.498945 0,1.527133 -1.110643,2.637775 -2.637776,2.637775 z m 29.432022,0 c -1.110642,0 -2.082455,-0.694151 -2.498945,-1.665963 -0.416491,-0.971812 -0.13883,-2.082454 0.555321,-2.915436 0.694152,-0.694151 1.943624,-0.971812 2.915436,-0.555321 0.971812,0.416491 1.665963,1.388303 1.665963,2.498945 0,1.527133 -1.249472,2.637775 -2.637775,2.637775 z"
     stroke="#00000000" />
</svg>
